<svg role="img" viewBox="0 0 642 108" preserveAspectRatio="xMinYMin meet" fill="none" xmlns="http://www.w3.org/2000/svg" aria-label="Pomegranate"><path fill="#FFFAF0" d="M44.52 19.65c-3.38 0-6.42.95-9.12 2.85a17.58 17.58 0 0 0-6.14 8.06c-.34.94-.77 1.34-1.28 1.2-.51-.15-.72-.73-.64-1.75.12-2.31.52-4.64 1.2-7 .22-.74.1-1.36-.35-1.88a2.75 2.75 0 0 0-1.83-.89 96.77 96.77 0 0 0-9.26-.34c-3.44 0-6.23.11-8.4.34-.63.09-1.15.36-1.58.81a2.95 2.95 0 0 0-.77 1.7c-.6 8.54-1.09 18.96-1.49 31.27-.4 12.31-.6 21.4-.6 29.95a2.44 2.44 0 0 0 2.26 2.52 142.62 142.62 0 0 0 19.92 0 2.66 2.66 0 0 0 1.82-.84c.47-.52.64-1.15.53-1.93-.71-4.84-2.18-17.98-2.18-25.9 0-1 .27-1.56.8-1.69.52-.13.95.25 1.3 1.13 1.24 3.76 3.22 6.55 5.92 8.4a16.33 16.33 0 0 0 9.47 2.77c5.76 0 10.38-2.16 13.84-6.48 3.45-4.32 5.18-10.34 5.18-18.04 0-7.7-1.68-13.68-5.05-17.9-3.37-4.24-7.88-6.36-13.55-6.36ZM39.32 50a6.4 6.4 0 0 1-5.12 2.3 6.4 6.4 0 0 1-5.12-2.3c-1.3-1.54-1.96-3.54-1.96-6.01 0-2.47.66-4.45 1.98-5.93a6.53 6.53 0 0 1 5.1-2.22c2.08 0 3.78.74 5.1 2.22 1.32 1.48 1.98 3.46 1.98 5.93 0 2.47-.65 4.47-1.96 6Zm72.29-23.43c-4.97-4.67-11.45-7.02-19.44-7.02-8 0-14.48 2.35-19.47 7.02-4.99 4.68-7.48 10.92-7.48 18.75 0 3.3.43 6.24 1.3 8.83a18.81 18.81 0 0 0 3.65 6.55 19.35 19.35 0 0 0 5.73 4.4 27.65 27.65 0 0 0 7.42 2.54c2.68.53 5.64.8 8.85.8 4.04 0 7.65-.43 10.85-1.28 3.2-.86 6.02-2.18 8.47-3.97a17.27 17.27 0 0 0 5.63-7.21 26.66 26.66 0 0 0 1.96-10.67c0-7.82-2.48-14.06-7.46-18.75v.01ZM97.46 50.7a6.55 6.55 0 0 1-5.3 2.48 6.53 6.53 0 0 1-5.28-2.48c-1.37-1.65-2.05-3.85-2.05-6.6 0-2.76.68-4.98 2.05-6.72a6.4 6.4 0 0 1 5.29-2.62 6.4 6.4 0 0 1 5.29 2.62c1.36 1.74 2.05 3.99 2.05 6.71 0 2.73-.69 4.96-2.05 6.61Zm106.84 6.71a398.95 398.95 0 0 0-.38-6.59l-.22-2.92a103.93 103.93 0 0 0-.62-6.12c-.14-1.1-.28-2.17-.43-3.2-.91-6.56-2.74-11.32-5.5-14.26a13.37 13.37 0 0 0-10.15-4.4c-3.3 0-6.17 1.23-8.62 3.7-2.45 2.47-4.14 5.7-5.07 9.64-.32 1.14-.75 1.71-1.28 1.73-.54.01-.94-.57-1.2-1.73-1.16-4.86-2.83-8.3-5-10.32-2.18-2.02-4.93-3.03-8.26-3.03-3.01 0-5.69 1.24-8.01 3.73-2.34 2.5-4.09 5.78-5.25 9.88-.2.68-.45 1.13-.75 1.34-.3.21-.56.16-.77-.15a2.6 2.6 0 0 1-.32-1.45c.09-1.96.59-5.37 1.5-10.24.17-.7.03-1.31-.43-1.81a3.2 3.2 0 0 0-1.88-.96 93.11 93.11 0 0 0-9.34-.34c-3.5 0-5.96.12-7.42.34-1.4.29-2.18 1.07-2.35 2.35-1.16 12.03-1.75 26.22-1.75 42.56a2.53 2.53 0 0 0 2.26 2.6c2.08.23 4.9.35 8.5.35 4.08 0 7.25-.12 9.5-.35.7-.08 1.3-.38 1.77-.87.47-.5.66-1.1.58-1.81-.57-7.42-.83-12.4-.77-14.97.06-2.76.46-5.03 1.21-6.83.76-1.79 1.74-2.68 2.97-2.68 1.47 0 2.64.86 3.5 2.58.85 1.72 1.31 4.03 1.4 6.93.06 2.78-.12 7.73-.51 14.84a2.62 2.62 0 0 0 2.43 2.81c2.3.23 5.48.35 9.5.35 4.04 0 6.96-.12 8.58-.35a3.34 3.34 0 0 0 1.86-.95c.47-.5.66-1.12.58-1.86-.63-7.82-.94-12.85-.94-15.1 0-2.73.4-4.95 1.21-6.67.81-1.72 1.83-2.58 3.05-2.58 1.45 0 2.6.85 3.44 2.53.83 1.7 1.3 4.08 1.38 7.15.09 3.1-.07 7.99-.47 14.67-.09.77.1 1.4.56 1.88.45.48 1.06.8 1.83.93 1.68.23 4.82.35 9.43.35 4.1 0 6.95-.12 8.57-.35a3.24 3.24 0 0 0 1.79-.93c.46-.49.67-1.1.64-1.88a391.83 391.83 0 0 1-.36-7.53h.01Zm51.45-6.76c-.11-1.22-.56-2-1.34-2.33-.78-.32-1.5-.07-2.15.75a21.03 21.03 0 0 1-6.85 4.14c-2.4.85-5.14 1.28-8.21 1.28-2.81 0-5.5-.63-8.04-1.9-2.54-1.26-4.28-2.9-5.22-4.92-.49-.8-.54-1.38-.15-1.75.38-.37.92-.29 1.64.25a21.09 21.09 0 0 0 11.68 3.33c4.72 0 8.86-1.27 12.41-3.82 3.56-2.54 5.33-5.72 5.33-9.53 0-5.43-1.96-9.55-5.88-12.37-3.93-2.81-9.4-4.22-16.46-4.22-7.79 0-14.05 2.11-18.77 6.33-4.72 4.22-7.08 10.06-7.08 17.5 0 8 2.5 14.16 7.48 18.52 5 4.35 11.87 6.52 20.63 6.52 3.97 0 7.82-.3 11.53-.91 3.71-.61 6.7-1.58 8.98-2.92a3.1 3.1 0 0 0 1.4-2.94c-.2-3.41-.5-7.08-.93-11ZM226.9 34.53a7.1 7.1 0 0 1 4.63-1.62c3.66 0 5.5 1.7 5.5 5.08 0 1.47-.45 2.6-1.34 3.4-.9.8-2.1 1.2-3.6 1.2-1.69 0-3.3-.36-4.85-1.08-1.55-.73-2.33-1.7-2.33-2.92 0-1.62.67-2.97 1.99-4.05Zm133.34-11.94c-2.14-1.96-4.96-2.94-8.49-2.94-6.57 0-10.96 4.94-13.18 14.84-.14.54-.35.9-.64 1.08-.29.19-.54.15-.76-.12-.23-.28-.35-.71-.35-1.3 0-3.36.39-7.04 1.15-11.05a2.1 2.1 0 0 0-.4-1.9 2.64 2.64 0 0 0-1.9-.95c-1.7-.23-4.7-.35-8.96-.35-3.87 0-6.56.12-8.06.35-.63.08-1.15.33-1.58.75-.43.41-.66.91-.69 1.51-1.13 12.03-1.74 26.27-1.83 42.73 0 .69.21 1.25.64 1.7.43.47.97.74 1.62.82 3.59.23 6.76.34 9.51.34 4.86 0 8.08-.08 9.64-.25.7-.09 1.3-.4 1.8-.96.48-.56.66-1.23.55-2.03a94.95 94.95 0 0 1-1.32-14.92c0-3.19 1.01-5.79 3.05-7.8a9.67 9.67 0 0 1 7.01-3.03c3.5 0 6.73 1.33 9.68 4 .63.8 1.36 1.05 2.2.76.84-.3 1.3-.97 1.39-2.03.7-8.79 1.12-14.14 1.23-16.08 0-1.33-.44-2.39-1.32-3.15v-.02Zm57.24-1.43a2.73 2.73 0 0 0-1.57-.75c-1.51-.23-4.2-.34-8.06-.34-4.27 0-7.26.11-8.96.34-.82.09-1.46.4-1.9.96a2.1 2.1 0 0 0-.4 1.9c.24 1.64.44 3.53.6 5.6.06.91-1.16 1.25-1.57.44a21.74 21.74 0 0 0-1.6-2.65c-3.3-4.68-7.61-7.02-12.92-7.02-5.3 0-9.61 2.34-12.92 7.02-3.32 4.67-4.97 10.92-4.97 18.74 0 3.3.28 6.24.86 8.83a22.96 22.96 0 0 0 2.42 6.55 15.09 15.09 0 0 0 8.74 6.95c1.78.53 3.74.79 5.87.79 2.68 0 5.09-.43 7.21-1.28a15.18 15.18 0 0 0 6.7-5.34c.5-.7 1.6-.31 1.51.55l-.28 2.58c-.12.8.07 1.47.56 2.03a2.7 2.7 0 0 0 1.79.95c1.56.17 4.77.26 9.63.26 2.76 0 5.93-.11 9.51-.34a2.6 2.6 0 0 0 1.62-.82 2.4 2.4 0 0 0 .65-1.7c-.09-16.47-.7-30.7-1.84-42.74-.03-.6-.26-1.1-.68-1.5Zm-22.03 29.62a6.55 6.55 0 0 1-5.29 2.48 6.53 6.53 0 0 1-5.29-2.48c-1.36-1.65-2.05-3.86-2.05-6.61 0-2.76.69-4.97 2.05-6.72a6.4 6.4 0 0 1 5.3-2.62 6.4 6.4 0 0 1 5.28 2.62c1.37 1.75 2.05 4 2.05 6.72 0 2.73-.68 4.96-2.05 6.6ZM538.1 21.16a2.73 2.73 0 0 0-1.57-.75c-1.51-.23-4.2-.34-8.06-.34-4.26 0-7.26.11-8.96.34-.82.09-1.46.4-1.9.96a2.1 2.1 0 0 0-.4 1.9c.24 1.64.44 3.53.6 5.6.06.91-1.16 1.25-1.57.44a21.74 21.74 0 0 0-1.6-2.65c-3.3-4.68-7.61-7.02-12.91-7.02s-9.62 2.34-12.93 7.02c-3.32 4.67-4.97 10.92-4.97 18.74 0 3.3.28 6.24.86 8.83a22.96 22.96 0 0 0 2.42 6.55 15.09 15.09 0 0 0 8.74 6.95c1.78.53 3.74.79 5.88.79 2.67 0 5.08-.43 7.2-1.28a15.18 15.18 0 0 0 6.7-5.34c.5-.7 1.6-.31 1.51.55l-.28 2.58c-.12.8.07 1.47.56 2.03a2.7 2.7 0 0 0 1.79.95c1.56.17 4.77.26 9.63.26 2.76 0 5.93-.11 9.51-.34a2.6 2.6 0 0 0 1.63-.82 2.4 2.4 0 0 0 .64-1.7c-.09-16.47-.7-30.7-1.84-42.74a2.1 2.1 0 0 0-.68-1.5Zm-22.03 29.62a6.55 6.55 0 0 1-5.29 2.48 6.53 6.53 0 0 1-5.29-2.48c-1.36-1.65-2.05-3.86-2.05-6.61 0-2.76.7-4.97 2.05-6.72a6.4 6.4 0 0 1 5.3-2.62 6.4 6.4 0 0 1 5.28 2.62c1.37 1.75 2.05 4 2.05 6.72 0 2.73-.68 4.96-2.05 6.6Zm-40.34-24.8c-3.05-4.22-7.29-6.33-12.68-6.33a14.4 14.4 0 0 0-9.34 3.24c-2.67 2.16-4.75 5.36-6.22 9.6-.29.8-.68 1.15-1.18 1.08-.5-.07-.75-.57-.75-1.47.06-2.1.65-5.06 1.75-8.88.2-.68.07-1.33-.4-1.96a2.37 2.37 0 0 0-1.77-1.02 94.1 94.1 0 0 0-8.75-.34c-3.84 0-6.72.11-8.66.34-1.25.17-2.03 1.03-2.35 2.6-1.33 10.35-2 24.45-2 42.3-.03.69.17 1.27.6 1.75.43.49.98.77 1.66.85 2.4.23 5.59.34 9.6.34 4 0 6.75-.11 8.83-.34a2.8 2.8 0 0 0 1.75-.83c.45-.47.64-1.05.55-1.77-.45-5.94-.73-11.3-.81-16.07a14 14 0 0 1 2.02-7.68c1.36-2.1 3.13-3.15 5.32-3.15 2.19 0 3.9 1.03 5.2 3.1 1.3 2.09 2 4.63 2.05 7.64 0 3.04-.34 8.4-1.02 16.08a2.6 2.6 0 0 0 2.34 2.68c2.73.23 5.82.34 9.26.34 3.44 0 6.24-.11 8.83-.34 1.42-.17 2.18-.95 2.26-2.35.12-8.76-.08-16.09-.6-22-.6-7.4-2.42-13.2-5.48-17.43v.02ZM585.2 49.43c-.68-.36-1.35-.28-2 .24-.8.4-1.8.76-3.03 1.08-1.22.33-2.28.5-3.15.5a7.66 7.66 0 0 1-4.7-1.37 4.9 4.9 0 0 1-1.96-3.88c-.2-2.99-.17-5.96.09-8.92.2-1.62 1.19-2.43 2.98-2.43 2.81 0 6.01.11 9.6.34.65.08 1.22-.14 1.7-.67a2.6 2.6 0 0 0 .73-1.85v-9.81c0-.71-.24-1.3-.73-1.8a2.33 2.33 0 0 0-1.7-.72c-1.14 0-2.95.03-5.42.09-2.48.05-4.29.08-5.42.08-.34 0-.64-.16-.87-.5a2.06 2.06 0 0 1-.37-1.25c0-1.13.49-7.12 1.09-10.53a2.22 2.22 0 0 0-.6-1.83 2.73 2.73 0 0 0-1.8-.94 95.52 95.52 0 0 0-9.33-.34c-4.63.2-7.11.31-7.42.34a2.68 2.68 0 0 0-2.35 2.35c-.23 2-.59 8.29-.7 11.47-.06.32-.2.59-.4.82-.22.23-.5.34-.84.34h-4.26c-.66 0-1.2.22-1.64.66-.44.45-.7 1-.75 1.69 0 .74 0 1.78-.02 3.11-.02 1.34-.02 2.54-.02 3.63 0 1.08.01 2.1.04 3.07.06.68.3 1.25.75 1.72.44.48.98.71 1.64.71.82-.06 2.02-.08 3.58-.08.35-.06.64.02.88.25a1 1 0 0 1 .32.85c-.46 3.61-.69 8.52-.69 14.72 0 3.04.53 5.72 1.58 8.03a14.01 14.01 0 0 0 4.45 5.61 20 20 0 0 0 6.63 3.18c2.5.7 5.3 1.04 8.37 1.04 5.06 0 9.99-.67 14.8-2 1.27-.52 1.91-1.55 1.91-3.11.15-4.75.18-8.7.09-11.82-.03-1.02-.39-1.71-1.06-2.07Zm52.5 12.22c-.2-3.41-.51-7.08-.93-11-.12-1.22-.56-2-1.34-2.33-.79-.32-1.5-.07-2.16.75a21.01 21.01 0 0 1-6.85 4.14c-2.4.85-5.13 1.28-8.2 1.28-2.82 0-5.5-.63-8.04-1.9-2.54-1.26-4.29-2.9-5.23-4.92-.48-.8-.53-1.38-.15-1.75.39-.37.93-.29 1.64.25a21.09 21.09 0 0 0 11.69 3.33c4.72 0 8.86-1.27 12.4-3.82 3.56-2.54 5.34-5.72 5.34-9.53 0-5.43-1.96-9.55-5.88-12.37-3.93-2.81-9.41-4.22-16.47-4.22-7.78 0-14.04 2.11-18.76 6.33-4.72 4.22-7.08 10.06-7.08 17.5 0 8 2.49 14.16 7.48 18.52 4.99 4.35 11.86 6.52 20.62 6.52 3.98 0 7.83-.3 11.54-.91 3.7-.61 6.7-1.58 8.98-2.92a3.1 3.1 0 0 0 1.4-2.94Zm-29.79-27.12a7.1 7.1 0 0 1 4.63-1.62c3.67 0 5.5 1.7 5.5 5.08 0 1.47-.45 2.6-1.34 3.4a5.2 5.2 0 0 1-3.6 1.2c-1.68 0-3.3-.36-4.84-1.08-1.55-.73-2.33-1.7-2.33-2.92 0-1.62.66-2.97 1.98-4.05ZM306.46 7.28c-5.68 0-10.94 3.59-10.94 9.88 0 1.55.47 2.98 1.2 4.27a31.2 31.2 0 0 0-11.13-1.88c-7.64 0-13.85 2.14-18.63 6.4-4.78 4.26-7.17 9.96-7.17 17.09 0 3 .42 5.69 1.24 8.05.83 2.36 2 4.35 3.5 5.97.58.63 1.22 1.2 1.9 1.75-2.47 1.83-8.1 6.85-7.5 14.37.77 9.6 9.21 14.4 23.37 13.34 11.36-.86 13.18.05 13.28 1.27.02.26-.23.82-.63 1.56-1.4 2.57 1.28 5.47 3.88 4.18 5.84-2.9 12.33-7.7 11.78-14.6-.98-12.35-14.01-11.2-23.2-10.51-10.84.82-12.2-.8-12.33-2.65-.08-.88.6-1.8 1.32-2.53.25.05.48.12.73.16 2.56.48 5.4.72 8.47.72 3.86 0 7.32-.38 10.38-1.16a24.58 24.58 0 0 0 8.1-3.62 15.91 15.91 0 0 0 5.4-6.57 23.33 23.33 0 0 0 1.88-9.72c0-6.98-2.29-12.57-6.84-16.8l-.07-.16c-.73-1.06-1.22-2.16-1.06-3.07.17-1.01.73-1.95 4.15-2.13 4.16-.22 6.9-2.76 7.03-6.58.13-3.83-2.42-7.03-8.1-7.03h-.01ZM285.58 50.7c-4.04 0-7.28-2.88-7.28-8.52 0-5.93 3.4-9.26 7.28-9.26 3.89 0 7.29 3.9 7.29 9.26 0 5.35-2.45 8.52-7.29 8.52Z"></path></svg>
